<svg xmlns="http://www.w3.org/2000/svg" xmlns:svg="http://www.w3.org/2000/svg" id="svg58320" width="23.801" height="23.105" version="1.1"><defs id="defs58322"><clipPath id="clipPath57969" clipPathUnits="userSpaceOnUse"><path id="path57971" d="m 0,0 1044,0 0,1530 L 0,1530 0,0 z"/></clipPath></defs><metadata id="metadata58325"/><g id="layer1" transform="translate(-602.38509,-540.80962)"><g id="g58353"><g id="g57965" transform="matrix(1.25,0,0,-1.25,-179.49828,1464.315)"><g id="g57967" clip-path="url(#clipPath57969)"><g id="g57973" transform="translate(636.9557,723.6343)"><path id="path57975" style="fill:#f7931e;fill-opacity:1;fill-rule:nonzero;stroke:none" d="M 0,0 0.963,-2.428 3.071,-1.12 1.407,0.531 c 0.419,0.27 1.275,0.972 1.275,0.972 L 4.464,-0.206 6.078,1.657 3.627,2.839 C 4.044,3.668 4.188,4.141 4.188,4.141 L 6.7,3.521 7.292,5.943 4.464,5.74 c 0.05,0.616 -0.13,1.534 -0.13,1.534 L 6.852,8.099 6.105,10.318 3.747,8.901 c -0.12,0.231 -0.89,1.27 -0.89,1.27 L 4.871,12.066 2.976,13.6 1.617,11.263 C 1.322,11.56 0.168,11.966 0.168,11.966 l 0.692,2.606 -2.316,0.298 0.119,-2.545 c -0.409,0.118 -1.897,-0.117 -1.897,-0.117 l -0.791,2.634 -2.337,-1.04 1.475,-2.182 c -0.266,-0.093 -1.419,-1.035 -1.419,-1.035 l -1.419,2.42 -1.862,-2.301 2.192,-1.45 c 0,0 -0.658,-1.39 -0.658,-1.573 l -2.633,1.248 -0.44,-2.72 2.788,-0.233 c 0,0 0.111,-1.306 0.235,-1.54 l -3.046,-0.056 0.709,-2.574 3.019,0.97 c 0,0 0.702,-1.062 0.938,-1.239 0.238,-0.18 0.105,-0.25 0.105,-0.25 l -2.559,-1.521 2.134,-2.07 1.861,2.596 c 0,0 1.268,-0.468 1.534,-0.498 l -1.035,-2.39 2.717,-0.418 0.157,2.606 c 0,0 0.88,0.027 1.569,0.408"/></g><g id="g57977" transform="translate(636.9557,723.6343)"><path id="path57979" style="fill:none;stroke:#000;stroke-width:.60000002;stroke-linecap:butt;stroke-linejoin:miter;stroke-miterlimit:4;stroke-opacity:1;stroke-dasharray:none" d="M 0,0 0.963,-2.428 3.071,-1.12 1.407,0.531 c 0.419,0.27 1.275,0.972 1.275,0.972 L 4.464,-0.206 6.078,1.657 3.627,2.839 C 4.044,3.668 4.188,4.141 4.188,4.141 L 6.7,3.521 7.292,5.943 4.464,5.74 c 0.05,0.616 -0.13,1.534 -0.13,1.534 L 6.852,8.099 6.105,10.318 3.747,8.901 c -0.12,0.231 -0.89,1.27 -0.89,1.27 L 4.871,12.066 2.976,13.6 1.617,11.263 C 1.322,11.56 0.168,11.966 0.168,11.966 l 0.692,2.606 -2.316,0.298 0.119,-2.545 c -0.409,0.118 -1.897,-0.117 -1.897,-0.117 l -0.791,2.634 -2.337,-1.04 1.475,-2.182 c -0.266,-0.093 -1.419,-1.035 -1.419,-1.035 l -1.419,2.42 -1.862,-2.301 2.192,-1.45 c 0,0 -0.658,-1.39 -0.658,-1.573 l -2.633,1.248 -0.44,-2.72 2.788,-0.233 c 0,0 0.111,-1.306 0.235,-1.54 l -3.046,-0.056 0.709,-2.574 3.019,0.97 c 0,0 0.702,-1.062 0.938,-1.239 0.238,-0.18 0.105,-0.25 0.105,-0.25 l -2.559,-1.521 2.134,-2.07 1.861,2.596 c 0,0 1.268,-0.468 1.534,-0.498 l -1.035,-2.39 2.717,-0.418 0.157,2.606 c 0,0 0.88,0.027 1.569,0.408 z"/></g></g></g></g></g></svg>