<svg xmlns="http://www.w3.org/2000/svg" xmlns:svg="http://www.w3.org/2000/svg" id="svg2" width="172.001" height="180.082" version="1.1"><metadata id="metadata7"/><g id="layer1" transform="translate(-182.95284,-406.98993)"><path style="fill:#00a650;fill-opacity:1;stroke:#000;stroke-width:2.79999995;stroke-linecap:butt;stroke-linejoin:round;stroke-miterlimit:4;stroke-opacity:1;stroke-dasharray:none" id="path2996" d="m 225.26402,585.6717 46.46702,0 c 24.70761,-16.63244 24.15174,-53.84993 12.6269,-100.0051 l 7.57615,-1.51523 8.08122,13.63706 12.6269,7.57615 8.5863,27.77919 -2.52538,-45.45686 -14.64721,-21.21321 21.2132,10.60661 10.6066,19.19289 -2.52538,16.66752 20.20305,-36.36549 -10.6066,-29.7995 -47.98224,-8.08122 3.03045,-14.64721 31.81981,7.07107 -36.87057,-22.72844 -22.22336,18.18275 -14.64721,-17.17259 -42.4264,9.59644 22.22335,14.14214 -26.76904,0 -24.74874,16.66752 1.51523,27.27412 17.17259,-0.50508 -5.05076,-8.5863 48.48732,-11.61675 -27.77919,11.61675 -16.16244,27.7792 32.82996,23.23351 -3.03046,-28.78935 12.12183,-6.06092 17.17259,-1.51522 c 17.91163,54.36749 6.33105,89.0735 -36.36549,103.03555 z"/></g></svg>